<?xml version="1.0" standalone="no"?>
<!DOCTYPE svg PUBLIC "-//W3C//DTD SVG 20010904//EN"
 "http://www.w3.org/TR/2001/REC-SVG-20010904/DTD/svg10.dtd">
<svg version="1.0" xmlns="http://www.w3.org/2000/svg"
 width="384.000000pt" height="701.000000pt" viewBox="0 0 384.000000 701.000000"
 preserveAspectRatio="xMidYMid meet">

<g transform="translate(0.000000,701.000000) scale(0.100000,-0.100000)"
fill="#000000" stroke="none">
<path d="M3813 6963 c-8 -3 -13 -23 -13 -47 0 -45 -29 -96 -54 -96 -7 0 -25 9
-39 20 -21 17 -30 18 -55 9 -28 -9 -30 -14 -25 -40 5 -27 3 -29 -25 -29 -17 0
-32 -6 -36 -15 -3 -9 -18 -15 -37 -15 -18 0 -48 -5 -66 -12 -27 -10 -38 -10
-51 0 -9 7 -35 21 -58 31 -25 12 -49 33 -63 56 -21 37 -23 37 -69 32 -67 -7
-102 15 -102 65 0 49 -22 50 -38 4 -16 -42 -41 -52 -81 -32 -17 9 -32 16 -35
16 -3 0 -5 -20 -4 -45 2 -36 -3 -50 -25 -73 -15 -15 -30 -43 -33 -62 -4 -19
-14 -45 -22 -58 -8 -12 -17 -48 -21 -80 -5 -50 -9 -57 -30 -60 -13 -2 -28 1
-34 7 -6 6 -35 11 -64 11 -49 0 -55 3 -71 30 -11 19 -25 30 -39 30 -13 0 -31
12 -44 29 -27 37 -61 50 -122 48 -50 -2 -67 -15 -67 -54 0 -27 -28 -37 -95
-34 -55 2 -75 14 -75 42 0 28 -29 23 -40 -6 -9 -24 -50 -43 -69 -31 -6 4 -9
-17 -7 -56 2 -59 4 -63 26 -66 27 -4 70 -39 70 -57 0 -21 -137 -155 -158 -155
-32 0 -34 -15 -7 -40 14 -13 25 -31 25 -41 0 -23 7 -27 57 -32 58 -7 63 -12
63 -61 0 -27 6 -48 15 -56 38 -32 -2 -119 -48 -105 -46 14 -151 18 -221 9 -58
-7 -79 10 -69 57 7 34 -15 121 -30 116 -5 -1 -15 -18 -21 -37 -14 -44 -47 -52
-82 -19 l-24 23 -33 -32 c-33 -32 -79 -43 -92 -22 -7 11 -54 13 -79 4 -9 -4
-16 -18 -16 -34 0 -37 -17 -80 -37 -95 -26 -19 -10 -63 25 -67 25 -3 27 -7 30
-53 2 -27 7 -54 12 -60 4 -5 10 -35 12 -65 3 -50 1 -55 -19 -58 -12 -2 -38 4
-57 13 -54 26 -78 17 -93 -34 -16 -57 -31 -73 -62 -69 -19 2 -31 14 -46 45
-26 53 -29 56 -54 48 -16 -5 -21 -15 -21 -41 0 -85 -40 -95 -106 -27 -36 38
-48 45 -61 37 -35 -22 -38 -40 -14 -93 21 -43 23 -58 17 -118 -5 -50 -3 -78 7
-103 16 -38 10 -118 -11 -157 -30 -54 -84 -54 -120 2 -12 19 -29 35 -37 35
-23 0 -138 -117 -132 -134 3 -8 24 -17 47 -21 37 -6 41 -9 38 -33 -3 -30 -15
-32 -103 -12 -60 13 -74 14 -142 12 -58 -2 -63 -9 -32 -51 20 -27 20 -29 3
-64 l-18 -37 35 -38 c20 -20 43 -50 53 -66 10 -15 36 -35 57 -44 l39 -15 0
-62 c0 -59 -2 -63 -27 -73 -54 -21 -107 -24 -138 -8 -53 28 -103 16 -91 -22 5
-15 -1 -30 -23 -53 -17 -18 -31 -34 -31 -37 0 -18 56 -82 71 -82 19 0 49 -50
49 -82 0 -16 7 -18 40 -16 24 1 46 -4 57 -14 11 -10 29 -14 48 -11 19 3 51 -5
87 -21 62 -27 62 -27 42 -123 -7 -37 -63 -30 -77 10 -10 27 -37 21 -37 -8 0
-18 -7 -26 -24 -31 -41 -10 -61 -1 -64 29 -2 15 -6 27 -10 27 -95 7 -123 10
-154 16 -43 7 -44 6 -21 -58 13 -36 14 -56 7 -85 l-9 -38 -80 -8 c-60 -7 -83
-13 -93 -28 -18 -27 -72 -26 -79 1 -7 26 -20 25 -29 -2 -4 -13 -17 -37 -30
-54 -48 -62 -21 -107 80 -135 28 -8 41 -18 49 -40 6 -16 17 -29 24 -29 18 0
16 -31 -3 -58 -14 -20 -14 -22 3 -22 29 0 43 -20 43 -64 0 -62 10 -71 61 -58
40 11 46 10 61 -9 14 -16 24 -19 49 -14 43 10 119 -3 126 -21 3 -9 -2 -23 -11
-32 -15 -15 -14 -18 16 -44 18 -15 41 -28 51 -28 28 0 21 -39 -9 -50 -32 -13
-30 -13 -49 6 -19 20 -45 11 -45 -15 0 -13 -9 -23 -24 -27 -29 -7 -41 -31 -25
-50 17 -21 27 -17 44 17 13 24 22 30 43 27 29 -3 32 -17 18 -69 -7 -23 -4 -27
21 -34 22 -5 31 -2 42 14 10 15 24 21 52 21 49 0 66 -28 52 -87 -7 -30 -14
-39 -33 -41 -14 -2 -31 -9 -38 -14 -7 -6 -32 -8 -62 -4 -49 7 -51 6 -68 -24
-16 -28 -20 -30 -58 -24 -38 5 -41 4 -67 -34 -15 -23 -36 -42 -48 -44 -12 -2
-27 -11 -33 -21 -9 -15 -5 -23 22 -45 27 -23 32 -33 30 -62 -3 -31 0 -35 24
-38 23 -3 29 -11 44 -57 22 -73 35 -83 78 -60 38 21 59 12 72 -27 3 -11 17
-36 30 -55 29 -44 30 -64 4 -88 -28 -25 -25 -34 16 -51 22 -9 40 -26 48 -45
l12 -30 12 26 c18 39 53 51 93 31 38 -19 40 -18 48 31 6 36 7 37 66 48 33 6
82 21 109 33 62 28 72 28 92 -3 22 -34 11 -70 -31 -98 -41 -26 -50 -48 -34
-79 17 -33 50 -68 65 -68 19 0 34 33 34 74 0 44 29 76 69 76 39 0 47 -14 55
-92 9 -89 12 -96 53 -113 19 -8 37 -24 40 -35 6 -22 18 -26 28 -10 11 18 47
11 52 -10 3 -12 11 -19 17 -17 12 4 12 50 1 104 -11 50 1 81 37 96 l32 13 -32
23 c-18 12 -32 31 -32 41 0 33 53 77 115 95 102 29 105 32 105 65 0 24 6 33
26 40 33 13 80 13 104 0 21 -11 36 3 42 39 1 13 10 29 19 34 24 15 122 -27
187 -80 29 -24 57 -43 63 -43 16 0 69 -63 69 -81 0 -23 -22 -30 -78 -23 l-47
6 52 -31 c63 -38 82 -39 113 -6 27 29 43 30 119 11 31 -8 90 -20 131 -26 109
-17 105 -14 172 -103 124 -162 240 -280 310 -311 34 -16 78 -56 172 -159 123
-134 156 -179 156 -212 0 -10 8 -33 17 -52 15 -33 15 -45 -2 -189 -19 -163
-16 -260 8 -297 32 -49 36 -214 7 -279 -11 -24 -20 -62 -20 -86 0 -25 -10 -62
-24 -90 -13 -26 -29 -66 -35 -88 -6 -23 -40 -83 -76 -134 -65 -91 -94 -161
-82 -194 8 -21 148 -86 184 -86 15 0 42 5 60 12 26 10 45 9 91 -1 31 -8 109
-17 172 -21 92 -6 125 -5 168 8 l52 16 0 1201 c0 999 -2 1204 -14 1220 -11 16
-11 36 -3 100 12 94 21 4405 10 4404 -5 0 -14 -3 -20 -6z m-1113 -1148 c55
-28 75 -55 66 -91 -10 -39 -86 -61 -86 -25 0 11 -4 22 -9 25 -5 4 -19 27 -32
52 -18 38 -19 48 -8 55 18 11 13 13 69 -16z m-940 -218 c14 -26 14 -29 -4 -43
-11 -8 -23 -14 -28 -14 -16 0 -40 49 -33 70 9 30 45 22 65 -13z m55 -213 c134
-23 133 -23 175 -79 22 -29 44 -56 50 -60 14 -9 13 -58 -2 -73 -21 -21 -47
-13 -84 28 -20 22 -42 40 -50 40 -24 0 -203 94 -209 110 -9 23 34 53 65 45 14
-3 39 -8 55 -11z m-683 -236 c18 -14 36 -128 20 -128 -18 0 -74 33 -79 47 -8
21 15 93 30 93 7 0 20 -6 29 -12z m1102 -69 c68 -60 59 -99 -21 -99 -31 0 -43
4 -43 15 0 8 -18 26 -40 40 -28 18 -40 32 -40 48 0 32 7 37 55 37 35 0 50 -7
89 -41z m381 -1500 c25 -23 45 -47 45 -55 0 -22 -18 -26 -52 -10 -18 8 -44 16
-57 18 -30 4 -50 51 -31 73 21 25 48 17 95 -26z m223 -280 c4 -38 -17 -51 -59
-37 -19 6 -40 13 -47 14 -25 7 -8 39 20 39 15 1 31 4 35 8 16 17 48 2 51 -24z
m-1900 -446 c-2 -22 -10 -29 -38 -35 -46 -10 -60 -4 -60 25 0 33 7 37 57 37
42 0 44 -1 41 -27z m1477 -157 c51 -67 13 -110 -55 -64 -41 28 -48 52 -24 79
25 28 50 23 79 -15z m578 23 c35 -16 88 -137 95 -216 5 -63 -2 -75 -26 -50 -7
6 -40 26 -74 42 -52 25 -70 41 -105 93 -53 79 -63 110 -38 129 23 16 115 17
148 2z m-2053 -49 c0 -26 -4 -30 -28 -30 -32 0 -52 16 -52 42 0 14 8 18 40 18
38 0 40 -2 40 -30z m1782 -55 c11 -14 28 -25 38 -25 10 0 26 -12 36 -27 48
-75 97 -123 125 -123 35 0 129 -70 194 -143 36 -41 51 -70 71 -137 14 -47 32
-94 38 -105 55 -88 33 -144 -42 -106 -20 11 -50 25 -67 33 -70 31 -271 262
-343 392 -19 34 -39 68 -46 76 -22 27 -95 178 -89 184 16 16 66 5 85 -19z
m-444 -31 c60 -17 184 -74 215 -98 10 -8 17 -23 15 -33 -3 -16 -14 -18 -100
-17 -83 1 -101 5 -130 24 -58 40 -98 83 -98 105 0 40 14 43 98 19z m1176 -58
c8 -19 23 -39 34 -45 23 -12 45 -114 31 -141 -4 -8 -17 -36 -28 -62 -11 -27
-24 -48 -28 -48 -10 0 -43 172 -43 223 0 21 -5 47 -11 58 -6 12 -8 27 -5 35
10 25 35 15 50 -20z m303 -466 c13 -36 23 -78 23 -93 0 -15 7 -41 15 -57 14
-27 14 -33 -4 -67 -10 -21 -22 -52 -25 -69 -4 -18 -16 -40 -28 -50 -20 -19
-21 -18 -53 20 -18 22 -36 52 -39 67 -3 14 -16 40 -30 57 -31 36 -33 61 -6 95
11 14 20 30 20 36 0 6 14 32 30 58 17 26 30 53 30 61 0 8 9 12 23 10 17 -2 27
-17 44 -68z"/>
</g>
</svg>
