<?xml version="1.0" standalone="no"?>
<!DOCTYPE svg PUBLIC "-//W3C//DTD SVG 20010904//EN"
 "http://www.w3.org/TR/2001/REC-SVG-20010904/DTD/svg10.dtd">
<svg version="1.0" xmlns="http://www.w3.org/2000/svg"
 width="165.000000pt" height="200.000000pt" viewBox="0 0 165.000000 200.000000"
 preserveAspectRatio="xMidYMid meet">
<metadata>
Created by potrace 1.16, written by Peter Selinger 2001-2019
</metadata>
<g transform="translate(0.000000,200.000000) scale(0.100000,-0.100000)"
fill="#000000" stroke="none">
<path d="M66 1970 c-64 -5 -77 -17 -49 -42 10 -9 56 -52 103 -96 118 -111 204
-151 316 -146 65 3 132 -24 118 -48 -4 -6 -3 -8 3 -5 13 8 76 -57 66 -68 -5
-4 -3 -5 3 -2 15 9 147 -151 137 -165 -3 -6 -1 -8 5 -4 13 8 44 -33 35 -47 -3
-6 -1 -7 4 -4 9 6 113 -121 113 -138 0 -4 -14 5 -32 20 -17 14 -65 44 -107 65
-42 21 -88 52 -103 69 -52 58 -97 79 -180 87 -84 7 -128 1 -128 -19 0 -41 159
-117 245 -117 39 0 71 -9 121 -32 l69 -33 -43 -3 c-28 -2 -47 2 -58 12 -8 9
-23 16 -32 16 -15 0 -15 2 -2 10 27 18 -5 10 -106 -23 -97 -33 -214 -91 -214
-107 0 -24 40 -35 153 -41 102 -6 127 -4 152 9 17 9 33 15 37 14 5 -1 7 1 6 6
-2 12 20 60 33 68 8 5 10 3 4 -7 -6 -11 -5 -12 6 -1 14 13 89 17 89 5 0 -5 10
-9 23 -9 51 -3 149 -97 131 -126 -4 -6 -3 -8 3 -5 9 6 88 -139 95 -175 2 -7 6
-15 9 -18 17 -15 130 -317 184 -495 18 -60 37 -119 41 -130 6 -17 3 -16 -22 6
-16 15 -43 35 -60 45 -17 11 -32 21 -33 24 -1 3 -4 15 -7 27 -4 13 -11 23 -16
23 -5 0 -6 6 -2 13 4 6 4 9 -1 5 -4 -4 -21 4 -37 17 -26 22 -61 36 -128 49
-38 8 -109 67 -170 141 -55 68 -77 78 -72 30 11 -102 123 -277 221 -345 28
-19 48 -24 95 -24 34 0 75 6 92 13 29 13 34 12 63 -8 17 -12 28 -27 25 -33 -4
-6 -2 -8 3 -5 23 14 62 -44 79 -120 19 -78 34 -108 51 -102 9 4 -3 73 -62 334
-25 113 -20 307 8 346 7 9 33 25 59 37 26 11 59 32 72 45 14 14 28 22 32 18 4
-3 5 -1 1 4 -7 14 38 87 48 77 4 -4 5 -1 1 6 -5 8 13 62 43 132 67 155 69 203
6 122 -17 -21 -63 -67 -103 -101 -59 -51 -80 -77 -112 -141 -22 -44 -40 -85
-40 -92 0 -7 -9 -31 -20 -53 l-19 -40 2 85 c1 80 3 86 30 109 70 59 98 210 66
351 -10 47 -24 108 -30 135 -13 62 -39 125 -59 145 -14 13 -14 14 0 6 8 -6 5
1 -7 14 -12 13 -25 22 -28 19 -8 -8 -36 -165 -45 -249 -5 -45 -17 -92 -30
-118 -37 -71 -25 -162 35 -270 14 -24 22 -49 18 -55 -3 -6 -1 -7 5 -3 9 5 11
-42 9 -183 -1 -105 -4 -185 -5 -178 -19 67 -115 315 -162 419 -39 85 -65 158
-75 211 -8 45 -24 114 -35 154 -18 64 -18 74 -5 100 32 62 8 157 -65 255 -48
66 -100 105 -121 92 -7 -4 -9 -22 -4 -48 3 -22 9 -59 12 -81 3 -21 12 -57 19
-78 8 -22 14 -48 14 -57 0 -10 22 -38 49 -62 57 -49 76 -87 91 -181 5 -36 13
-74 16 -84 6 -22 5 -21 -77 106 -72 111 -178 241 -296 362 -55 57 -93 104 -93
116 0 23 -38 123 -53 138 -7 7 -7 5 -1 -5 4 -8 -6 -3 -23 11 -29 24 -59 34
-231 79 -24 6 -40 15 -36 21 6 10 -2 10 -130 -1z"/>
</g>
</svg>
