<?xml version="1.0" standalone="no"?>
<!DOCTYPE svg PUBLIC "-//W3C//DTD SVG 20010904//EN"
 "http://www.w3.org/TR/2001/REC-SVG-20010904/DTD/svg10.dtd">
<svg version="1.0" xmlns="http://www.w3.org/2000/svg"
 width="1920.000000pt" height="1080.000000pt" viewBox="0 0 1920.000000 1080.000000"
 preserveAspectRatio="xMidYMid meet">
<metadata>
Created by potrace 1.16, written by Peter Selinger 2001-2019
</metadata>
<g transform="translate(0.000000,1080.000000) scale(0.100000,-0.100000)"
fill="#000000" stroke="none">
<path d="M3030 7850 c-108 -15 -264 -49 -336 -74 -64 -21 -69 -25 -72 -53 l-3
-31 104 33 c178 56 256 69 427 70 130 0 164 -3 207 -19 110 -41 196 -132 231
-245 26 -84 23 -294 -5 -378 -75 -225 -292 -372 -575 -390 l-88 -6 0 -28 c0
-29 0 -29 63 -29 90 0 272 -19 343 -35 250 -58 363 -224 364 -531 0 -198 -52
-337 -170 -454 -117 -116 -242 -160 -456 -160 -191 0 -317 19 -507 77 -15 5
-18 1 -15 -22 3 -27 9 -30 101 -56 141 -41 283 -59 453 -59 230 0 363 26 522
101 177 83 287 215 333 399 19 76 17 268 -4 348 -43 163 -138 278 -287 350
-82 39 -231 82 -284 82 -46 0 -36 16 22 34 116 36 232 106 317 191 130 129
185 265 170 420 -24 237 -152 383 -393 446 -88 24 -351 34 -462 19z"/>
<path d="M3910 7056 c0 -9 23 -15 83 -20 117 -9 183 -43 217 -111 l25 -50 3
-974 c2 -587 -1 -1001 -7 -1043 -18 -133 -82 -186 -237 -196 -61 -3 -84 -8
-84 -18 0 -12 154 -14 939 -14 l938 0 6 98 c4 53 10 220 13 371 6 233 5 273
-7 269 -10 -3 -17 -40 -26 -134 -33 -345 -109 -479 -313 -546 -61 -20 -88 -22
-448 -26 l-383 -4 3 1104 c3 827 7 1112 16 1138 15 44 76 104 121 119 18 6 69
14 112 17 57 5 79 11 79 20 0 12 -90 14 -525 14 -435 0 -525 -2 -525 -14z"/>
<path d="M14566 6854 c-39 -153 -133 -277 -255 -333 -76 -35 -194 -61 -277
-61 -41 0 -54 -4 -54 -15 0 -13 21 -15 130 -15 l130 0 0 -702 c1 -757 3 -803
53 -911 50 -109 144 -179 282 -208 74 -15 258 -15 345 1 105 19 170 40 170 56
0 18 -6 18 -77 -1 -67 -18 -172 -19 -227 -4 -23 6 -57 29 -86 58 -38 38 -50
59 -66 116 -18 66 -19 111 -19 830 l0 760 233 3 c197 2 232 5 232 17 0 13 -34
15 -235 15 l-235 0 0 230 c0 189 -2 230 -14 230 -8 0 -20 -25 -30 -66z"/>
<path d="M6806 6489 c-102 -10 -231 -52 -312 -100 -73 -44 -182 -160 -227
-240 -86 -153 -128 -357 -128 -617 1 -233 34 -394 112 -540 128 -240 313 -359
609 -392 348 -39 663 98 711 308 15 69 -28 162 -75 162 -6 0 -17 -27 -23 -60
-48 -255 -270 -411 -538 -379 -272 33 -389 264 -412 812 l-6 157 566 0 567 0
0 98 c0 181 -43 363 -113 482 -17 30 -63 86 -102 125 -145 146 -366 210 -629
184z m195 -39 c163 -45 239 -241 256 -657 l6 -163 -373 0 -373 0 7 113 c33
517 136 713 381 716 33 1 76 -4 96 -9z"/>
<path d="M10680 6489 c-301 -29 -510 -200 -610 -496 -81 -243 -84 -641 -7
-868 109 -320 321 -486 667 -525 345 -39 652 92 706 300 15 59 4 111 -31 146
-38 38 -48 30 -67 -48 -38 -158 -111 -254 -241 -318 -138 -68 -298 -72 -424
-10 -179 88 -263 316 -280 763 l-6 167 566 0 567 0 0 93 c0 545 -319 847 -840
796z m236 -57 c114 -58 178 -222 203 -517 6 -66 11 -157 11 -202 l0 -83 -371
0 -372 0 7 118 c27 449 108 641 296 703 47 16 181 4 226 -19z"/>
<path d="M12868 6490 c-103 -13 -171 -36 -240 -83 -71 -48 -117 -109 -149
-198 -12 -32 -26 -59 -30 -59 -5 0 -9 70 -9 155 l0 155 -325 0 c-276 0 -325
-2 -325 -14 0 -10 16 -17 48 -21 114 -14 170 -44 204 -107 l23 -43 0 -730 c0
-727 0 -730 -21 -770 -40 -73 -93 -103 -205 -112 -49 -4 -69 -10 -69 -19 0
-12 84 -14 485 -14 402 0 485 2 485 14 0 9 -21 15 -71 20 -120 11 -176 53
-205 152 -13 45 -15 133 -11 626 4 635 5 645 70 783 67 139 150 195 302 202
185 10 270 -58 332 -265 15 -51 17 -133 20 -794 l4 -738 319 0 c263 0 320 2
320 14 0 9 -20 15 -66 19 -126 12 -176 64 -194 200 -5 39 -10 304 -10 587 -1
555 -4 603 -54 734 -59 156 -167 247 -341 290 -78 19 -203 26 -287 16z"/>
<path d="M16047 6490 c-214 -25 -393 -112 -503 -248 -150 -184 -222 -530 -183
-879 52 -466 284 -716 707 -764 180 -20 414 22 552 98 85 47 196 160 245 246
85 154 125 346 125 602 0 173 -16 309 -50 420 -83 268 -292 460 -555 510 -97
19 -245 25 -338 15z m295 -63 c179 -88 252 -303 265 -782 14 -538 -58 -851
-220 -958 -72 -48 -119 -60 -217 -60 -314 3 -430 251 -430 918 0 497 67 764
216 856 79 48 123 59 229 56 86 -2 108 -6 157 -30z"/>
<path d="M17817 6480 c-88 -14 -216 -62 -281 -105 -121 -80 -176 -186 -184
-351 -7 -163 22 -253 111 -351 84 -91 190 -154 472 -278 161 -71 249 -122 297
-172 71 -73 99 -181 78 -307 -27 -170 -130 -263 -316 -286 -172 -21 -304 38
-363 163 -38 81 -61 187 -68 313 l-6 101 -43 -8 c-126 -24 -194 -103 -194
-227 0 -140 64 -235 204 -301 118 -57 202 -73 386 -73 381 0 600 126 675 386
25 86 23 241 -4 328 -51 159 -205 284 -492 398 -46 18 -138 59 -204 91 -190
91 -244 159 -253 315 -11 203 93 326 290 341 222 17 316 -95 343 -409 l7 -78
38 0 c54 0 141 34 172 68 40 42 51 72 51 133 0 73 -30 136 -91 190 -100 88
-207 120 -417 124 -82 2 -176 0 -208 -5z"/>
<path d="M7830 6445 c0 -8 11 -17 25 -20 14 -3 36 -7 49 -10 32 -7 83 -50 104
-89 9 -17 154 -404 322 -861 l306 -830 154 -3 155 -2 264 772 c145 425 279
807 298 848 58 127 107 165 232 176 50 5 71 11 71 20 0 12 -63 14 -355 14
-291 0 -355 -2 -355 -13 0 -11 27 -16 108 -21 59 -3 123 -11 143 -16 86 -24
120 -85 99 -179 -7 -31 -103 -321 -215 -646 -111 -324 -219 -641 -240 -704
l-38 -114 -97 284 c-53 156 -155 444 -225 639 -181 504 -195 547 -195 605 0
94 43 122 201 132 73 4 99 10 99 20 0 11 -80 13 -455 13 -395 0 -455 -2 -455
-15z"/>
</g>
</svg>
