<?xml version="1.0" standalone="no"?>
<!DOCTYPE svg PUBLIC "-//W3C//DTD SVG 20010904//EN"
 "http://www.w3.org/TR/2001/REC-SVG-20010904/DTD/svg10.dtd">
<svg version="1.0" xmlns="http://www.w3.org/2000/svg"
 width="767.000000pt" height="701.000000pt" viewBox="0 0 767.000000 701.000000"
 preserveAspectRatio="xMidYMid meet">

<g transform="translate(0.000000,701.000000) scale(0.100000,-0.100000)"
fill="#000000" stroke="none">
<path d="M3813 6963 c-8 -3 -13 -23 -13 -47 0 -45 -29 -96 -54 -96 -7 0 -25 9
-39 20 -21 17 -30 18 -55 9 -28 -9 -30 -14 -25 -40 5 -27 3 -29 -25 -29 -17 0
-32 -6 -36 -15 -3 -9 -18 -15 -37 -15 -18 0 -48 -5 -66 -12 -27 -10 -38 -10
-51 0 -9 7 -35 21 -58 31 -25 12 -49 33 -63 56 -21 37 -23 37 -69 32 -67 -7
-102 15 -102 65 0 49 -22 50 -38 4 -16 -42 -41 -52 -81 -32 -17 9 -32 16 -35
16 -3 0 -5 -20 -4 -45 2 -36 -3 -50 -25 -73 -15 -15 -30 -43 -33 -62 -4 -19
-14 -45 -22 -58 -8 -12 -17 -48 -21 -80 -5 -50 -9 -57 -30 -60 -13 -2 -28 1
-34 7 -6 6 -35 11 -64 11 -49 0 -55 3 -71 30 -11 19 -25 30 -39 30 -13 0 -31
12 -44 29 -27 37 -61 50 -122 48 -50 -2 -67 -15 -67 -54 0 -27 -28 -37 -95
-34 -55 2 -75 14 -75 42 0 28 -29 23 -40 -6 -9 -24 -50 -43 -69 -31 -6 4 -9
-17 -7 -56 2 -59 4 -63 26 -66 27 -4 70 -39 70 -57 0 -21 -137 -155 -158 -155
-32 0 -34 -15 -7 -40 14 -13 25 -31 25 -41 0 -23 7 -27 57 -32 58 -7 63 -12
63 -61 0 -27 6 -48 15 -56 38 -32 -2 -119 -48 -105 -46 14 -151 18 -221 9 -58
-7 -79 10 -69 57 7 34 -15 121 -30 116 -5 -1 -15 -18 -21 -37 -14 -44 -47 -52
-82 -19 l-24 23 -33 -32 c-33 -32 -79 -43 -92 -22 -7 11 -54 13 -79 4 -9 -4
-16 -18 -16 -34 0 -37 -17 -80 -37 -95 -26 -19 -10 -63 25 -67 25 -3 27 -7 30
-53 2 -27 7 -54 12 -60 4 -5 10 -35 12 -65 3 -50 1 -55 -19 -58 -12 -2 -38 4
-57 13 -54 26 -78 17 -93 -34 -16 -57 -31 -73 -62 -69 -19 2 -31 14 -46 45
-26 53 -29 56 -54 48 -16 -5 -21 -15 -21 -41 0 -85 -40 -95 -106 -27 -36 38
-48 45 -61 37 -35 -22 -38 -40 -14 -93 21 -43 23 -58 17 -118 -5 -50 -3 -78 7
-103 16 -38 10 -118 -11 -157 -30 -54 -84 -54 -120 2 -12 19 -29 35 -37 35
-23 0 -138 -117 -132 -134 3 -8 24 -17 47 -21 37 -6 41 -9 38 -33 -3 -30 -15
-32 -103 -12 -60 13 -74 14 -142 12 -58 -2 -63 -9 -32 -51 20 -27 20 -29 3
-64 l-18 -37 35 -38 c20 -20 43 -50 53 -66 10 -15 36 -35 57 -44 l39 -15 0
-62 c0 -59 -2 -63 -27 -73 -54 -21 -107 -24 -138 -8 -53 28 -103 16 -91 -22 5
-15 -1 -30 -23 -53 -17 -18 -31 -34 -31 -37 0 -18 56 -82 71 -82 19 0 49 -50
49 -82 0 -16 7 -18 40 -16 24 1 46 -4 57 -14 11 -10 29 -14 48 -11 19 3 51 -5
87 -21 62 -27 62 -27 42 -123 -7 -37 -63 -30 -77 10 -10 27 -37 21 -37 -8 0
-18 -7 -26 -24 -31 -41 -10 -61 -1 -64 29 -2 15 -6 27 -10 27 -95 7 -123 10
-154 16 -43 7 -44 6 -21 -58 13 -36 14 -56 7 -85 l-9 -38 -80 -8 c-60 -7 -83
-13 -93 -28 -18 -27 -72 -26 -79 1 -7 26 -20 25 -29 -2 -4 -13 -17 -37 -30
-54 -48 -62 -21 -107 80 -135 28 -8 41 -18 49 -40 6 -16 17 -29 24 -29 18 0
16 -31 -3 -58 -14 -20 -14 -22 3 -22 29 0 43 -20 43 -64 0 -62 10 -71 61 -58
40 11 46 10 61 -9 14 -16 24 -19 49 -14 43 10 119 -3 126 -21 3 -9 -2 -23 -11
-32 -15 -15 -14 -18 16 -44 18 -15 41 -28 51 -28 28 0 21 -39 -9 -50 -32 -13
-30 -13 -49 6 -19 20 -45 11 -45 -15 0 -13 -9 -23 -24 -27 -29 -7 -41 -31 -25
-50 17 -21 27 -17 44 17 13 24 22 30 43 27 29 -3 32 -17 18 -69 -7 -23 -4 -27
21 -34 22 -5 31 -2 42 14 10 15 24 21 52 21 49 0 66 -28 52 -87 -7 -30 -14
-39 -33 -41 -14 -2 -31 -9 -38 -14 -7 -6 -32 -8 -62 -4 -49 7 -51 6 -68 -24
-16 -28 -20 -30 -58 -24 -38 5 -41 4 -67 -34 -15 -23 -36 -42 -48 -44 -12 -2
-27 -11 -33 -21 -9 -15 -5 -23 22 -45 27 -23 32 -33 30 -62 -3 -31 0 -35 24
-38 23 -3 29 -11 44 -57 22 -73 35 -83 78 -60 38 21 59 12 72 -27 3 -11 17
-36 30 -55 29 -44 30 -64 4 -88 -28 -25 -25 -34 16 -51 22 -9 40 -26 48 -45
l12 -30 12 26 c18 39 53 51 93 31 38 -19 40 -18 48 31 6 36 7 37 66 48 33 6
82 21 109 33 62 28 72 28 92 -3 22 -34 11 -70 -31 -98 -41 -26 -50 -48 -34
-79 17 -33 50 -68 65 -68 19 0 34 33 34 74 0 44 29 76 69 76 39 0 47 -14 55
-92 9 -89 12 -96 53 -113 19 -8 37 -24 40 -35 6 -22 18 -26 28 -10 11 18 47
11 52 -10 3 -12 11 -19 17 -17 12 4 12 50 1 104 -11 50 1 81 37 96 l32 13 -32
23 c-18 12 -32 31 -32 41 0 33 53 77 115 95 102 29 105 32 105 65 0 24 6 33
26 40 33 13 80 13 104 0 21 -11 36 3 42 39 1 13 10 29 19 34 24 15 122 -27
187 -80 29 -24 57 -43 63 -43 16 0 69 -63 69 -81 0 -23 -22 -30 -78 -23 l-47
6 52 -31 c63 -38 82 -39 113 -6 27 29 43 30 119 11 31 -8 90 -20 131 -26 109
-17 105 -14 172 -103 124 -162 240 -280 310 -311 34 -16 78 -56 172 -159 123
-134 156 -179 156 -212 0 -10 8 -33 17 -52 15 -33 15 -45 -2 -189 -19 -163
-16 -260 8 -297 32 -49 36 -214 7 -279 -11 -24 -20 -62 -20 -86 0 -25 -10 -62
-24 -90 -13 -26 -29 -66 -35 -88 -6 -23 -40 -83 -76 -134 -65 -91 -94 -161
-82 -194 4 -9 42 -33 84 -52 80 -37 80 -37 185 -18 21 3 58 0 90 -9 80 -23
268 -25 347 -3 46 13 79 16 122 11 57 -7 110 1 204 31 l40 12 1 74 c1 55 -4
88 -22 133 -28 69 -84 328 -84 384 0 27 -7 44 -25 61 -25 23 -25 25 -25 194 0
221 8 268 67 383 52 102 110 170 216 253 37 29 67 57 67 60 0 4 20 29 45 56
26 27 41 52 36 57 -17 17 -78 -22 -138 -88 -35 -38 -66 -65 -72 -61 -32 20 14
161 73 226 23 25 64 73 91 107 28 34 70 74 95 90 25 15 76 58 113 95 62 62 72
68 109 68 26 0 57 9 84 25 23 14 49 22 58 19 20 -8 108 21 171 56 28 15 73 30
100 33 48 6 81 13 170 36 63 16 147 13 210 -9 87 -30 127 -26 199 17 49 30 71
38 111 38 47 0 50 1 55 30 7 38 34 44 65 15 14 -13 31 -20 39 -17 25 10 19 27
-9 27 -18 0 -25 5 -25 19 0 29 14 33 76 25 38 -4 64 -14 81 -30 15 -13 38 -24
54 -24 40 0 60 -31 46 -75 -11 -37 2 -65 29 -65 7 0 38 -12 69 -27 47 -23 55
-31 55 -55 0 -38 25 -37 67 4 32 31 35 32 60 18 23 -14 39 -45 62 -120 5 -19
16 -26 42 -30 34 -5 34 -5 31 -54 -1 -28 -9 -57 -17 -66 -18 -19 -10 -30 20
-30 12 0 34 -9 48 -20 14 -11 28 -20 32 -20 4 0 22 -7 41 -16 32 -15 35 -15
86 9 46 23 63 25 131 21 43 -2 87 -8 97 -14 25 -13 50 -13 50 2 0 6 -14 32
-30 58 -36 55 -32 80 12 80 19 0 43 11 65 30 24 21 44 30 69 30 63 0 104 32
104 80 0 11 16 32 35 47 19 15 35 33 35 40 0 7 15 24 34 39 34 27 34 28 19 58
-8 17 -21 38 -28 46 -7 8 -15 47 -16 85 -4 66 -3 70 18 73 12 2 34 -4 48 -14
24 -16 26 -16 40 2 8 10 15 28 15 39 0 11 9 27 20 35 12 8 20 26 20 42 0 26
-3 28 -39 28 -22 0 -43 5 -46 10 -3 6 -26 15 -51 21 -43 11 -44 12 -38 44 8
45 -16 58 -71 39 -43 -15 -75 -10 -75 10 0 8 -7 19 -15 26 -8 7 -15 20 -15 30
0 10 7 23 15 30 8 7 15 25 15 41 0 16 9 38 22 51 33 33 13 55 -69 77 -38 10
-43 15 -43 40 0 15 -9 38 -20 51 -11 13 -20 35 -20 50 0 24 9 32 63 61 l64 32
49 -23 c27 -13 70 -36 96 -52 66 -38 103 -17 63 36 -18 24 -19 68 -3 84 7 7
27 12 45 12 18 0 33 1 33 3 0 1 -11 24 -25 51 -20 39 -25 64 -25 121 0 67 -2
73 -25 83 -29 13 -33 45 -10 88 8 16 15 36 15 44 0 35 30 60 71 60 34 0 39 3
39 24 0 13 7 29 15 36 25 20 45 71 45 111 0 21 5 59 12 84 11 42 10 49 -12 91
-14 25 -37 56 -51 70 -24 23 -30 25 -64 15 -74 -20 -122 32 -73 81 l21 21 -23
19 c-16 13 -32 17 -47 14 -13 -3 -34 -9 -48 -12 -17 -4 -32 -1 -45 11 -15 14
-29 16 -69 10 -43 -6 -51 -4 -60 14 -24 43 2 91 42 76 7 -3 20 1 27 10 7 8 30
18 52 21 39 7 39 7 33 45 -6 36 -5 39 22 45 15 3 33 12 38 18 6 7 19 18 31 26
19 14 20 18 7 47 -10 27 -21 35 -58 44 -41 10 -86 47 -97 79 -2 6 -21 13 -43
16 -60 7 -87 32 -101 95 -12 48 -11 56 4 69 14 12 16 25 11 65 -4 28 -8 55 -9
60 -5 22 1 34 20 40 23 7 27 25 5 25 -8 0 -24 9 -35 20 -11 11 -30 19 -42 19
-13 -1 -30 1 -39 5 -12 5 -18 1 -22 -13 -8 -32 -64 -29 -77 3 -10 27 -46 56
-71 56 -8 0 -28 -14 -43 -31 -21 -24 -34 -30 -59 -27 -25 2 -33 8 -35 26 -2
16 -14 27 -33 34 -18 6 -29 17 -29 28 0 10 -11 27 -25 38 -29 23 -32 44 -9 63
17 14 74 128 74 147 0 12 -58 62 -72 62 -12 0 -47 41 -48 56 0 7 -9 14 -20 17
-23 6 -28 45 -8 65 9 9 7 16 -10 30 -16 14 -22 32 -24 82 -4 75 -23 97 -57 66
-12 -11 -21 -27 -21 -36 0 -50 -98 -56 -185 -10 -31 17 -69 30 -84 30 -36 0
-61 28 -61 68 0 26 -4 32 -22 32 -40 1 -113 44 -116 69 -5 29 8 41 50 50 41 8
51 43 18 61 -17 9 -30 8 -62 -5 -42 -17 -71 -13 -101 13 -16 14 -19 14 -27 2
-6 -8 -10 -22 -10 -30 0 -17 -19 -40 -31 -40 -14 0 -49 67 -49 94 0 14 5 46
12 70 16 62 3 76 -72 76 -64 0 -90 7 -90 23 0 6 -14 22 -31 37 -34 27 -47 76
-48 172 -1 25 -4 53 -7 62 -8 21 -33 20 -41 -1 -11 -28 -36 -50 -64 -56 -19
-5 -28 -15 -32 -36 -6 -31 4 -28 -184 -47 -61 -7 -93 7 -93 41 0 13 -11 37
-25 53 -19 23 -23 36 -19 64 5 27 0 44 -20 77 -35 55 -52 60 -82 27 -29 -30
-93 -37 -114 -11 -19 22 -48 18 -66 -10 -21 -32 -41 -32 -71 1 -20 22 -30 25
-56 20 -18 -4 -57 -9 -88 -13 -53 -5 -56 -4 -82 27 -15 17 -27 35 -27 39 0 12
-77 34 -90 26 -7 -4 -9 -17 -5 -32 13 -53 -29 -65 -131 -38 -68 17 -84 30 -84
62 0 38 -42 73 -89 73 -22 0 -46 3 -55 6 -13 5 -15 1 -10 -23 7 -36 -18 -61
-66 -65 -34 -3 -36 -1 -62 55 -27 55 -40 65 -75 50z m1857 -618 c6 -15 17 -25
29 -25 11 0 25 -9 31 -20 8 -16 7 -23 -9 -36 -19 -17 -19 -17 5 -43 43 -46 18
-78 -31 -39 -16 12 -38 22 -49 23 -28 0 -32 29 -8 53 18 18 18 19 1 31 -21 13
-24 33 -9 62 14 26 29 24 40 -6z m-2970 -530 c55 -28 75 -55 66 -91 -10 -39
-86 -61 -86 -25 0 11 -4 22 -9 25 -5 4 -19 27 -32 52 -18 38 -19 48 -8 55 18
11 13 13 69 -16z m1740 -100 c25 -13 30 -22 30 -51 0 -53 -15 -74 -53 -74 -56
0 -72 30 -37 70 11 13 20 34 20 47 0 27 2 28 40 8z m-2680 -118 c14 -26 14
-29 -4 -43 -11 -8 -23 -14 -28 -14 -16 0 -40 49 -33 70 9 30 45 22 65 -13z
m55 -213 c134 -23 133 -23 175 -79 22 -29 44 -56 50 -60 14 -9 13 -58 -2 -73
-21 -21 -47 -13 -84 28 -20 22 -42 40 -50 40 -24 0 -203 94 -209 110 -9 23 34
53 65 45 14 -3 39 -8 55 -11z m4490 -230 c6 -18 30 -53 53 -78 33 -35 42 -54
40 -74 -3 -25 -7 -27 -48 -27 -25 0 -62 -8 -84 -18 -48 -21 -75 -22 -83 -1 -8
23 14 65 38 71 20 6 21 11 17 85 l-5 79 31 -3 c25 -2 33 -9 41 -34z m-5173 -6
c18 -14 36 -128 20 -128 -18 0 -74 33 -79 47 -8 21 15 93 30 93 7 0 20 -6 29
-12z m1102 -69 c68 -60 59 -99 -21 -99 -31 0 -43 4 -43 15 0 8 -18 26 -40 40
-28 18 -40 32 -40 48 0 32 7 37 55 37 35 0 50 -7 89 -41z m4801 -179 c3 -5 19
-10 35 -10 60 0 75 -25 48 -82 -13 -26 -90 -68 -126 -68 -33 0 -60 41 -67 102
-6 50 -5 57 11 61 35 9 93 7 99 -3z m-2251 -780 c33 -72 32 -113 -3 -118 -13
-2 -28 1 -34 7 -16 16 -20 15 -65 -30 -36 -35 -47 -40 -79 -37 -33 3 -38 6
-39 28 -1 14 -6 35 -12 46 -16 30 2 44 55 44 60 0 103 23 103 56 0 32 17 64
34 64 7 0 25 -27 40 -60z m2174 -60 c3 -19 -75 -52 -105 -44 -14 4 -23 14 -23
25 0 25 34 39 85 36 26 -1 41 -7 43 -17z m-191 -46 c6 -17 -6 -45 -23 -51 -14
-5 -54 35 -54 52 0 22 69 20 77 -1z m476 -101 c41 -6 50 -28 19 -53 -48 -40
-50 -41 -69 -31 -10 5 -31 12 -46 16 -36 7 -44 28 -22 61 14 22 22 25 48 19
18 -3 49 -9 70 -12z m290 -8 c21 -30 15 -45 -19 -45 -17 0 -27 8 -34 26 -19
48 21 62 53 19z m-2601 -72 c22 -20 23 -52 2 -60 -9 -3 -32 -1 -50 6 -30 11
-37 10 -64 -10 -43 -33 -59 -14 -34 40 19 40 20 40 73 41 37 0 60 -5 73 -17z
m-2317 -254 c25 -23 45 -47 45 -55 0 -22 -18 -26 -52 -10 -18 8 -44 16 -57 18
-30 4 -50 51 -31 73 21 25 48 17 95 -26z m4407 -116 c22 -20 23 -46 3 -63 -15
-13 -77 -16 -94 -5 -19 11 -12 43 15 64 32 25 51 26 76 4z m-4184 -164 c4 -38
-17 -51 -59 -37 -19 6 -40 13 -47 14 -25 7 -8 39 20 39 15 1 31 4 35 8 16 17
48 2 51 -24z m3898 -53 c14 -11 17 -19 9 -31 -12 -20 -109 -57 -152 -58 -39
-1 -83 27 -83 53 0 18 7 20 73 20 47 1 79 6 91 15 25 19 37 19 62 1z m370
-250 c6 -15 -19 -70 -35 -80 -16 -10 -37 4 -48 33 -6 16 -8 33 -4 38 15 24 79
30 87 9z m-6168 -143 c-2 -22 -10 -29 -38 -35 -46 -10 -60 -4 -60 25 0 33 7
37 57 37 42 0 44 -1 41 -27z m5712 -86 c0 -13 -13 -42 -29 -64 l-30 -41 -68 5
c-37 3 -78 12 -90 19 -25 16 -30 46 -10 62 20 16 118 39 175 41 48 1 52 -1 52
-22z m-2503 -39 c-7 -69 -55 -237 -88 -313 -66 -151 -73 -165 -79 -165 -14 0
-104 119 -128 168 -13 29 -28 54 -32 57 -10 6 -1 133 12 170 22 61 45 75 119
75 47 0 70 4 79 15 14 16 61 33 99 34 21 1 23 -2 18 -41z m346 22 l45 -20 -15
-41 c-15 -45 -79 -133 -135 -187 l-35 -33 9 63 c4 34 14 71 21 82 8 12 19 44
27 71 13 49 27 85 34 85 2 0 24 -9 49 -20z m-2078 -54 c51 -67 13 -110 -55
-64 -41 28 -48 52 -24 79 25 28 50 23 79 -15z m578 23 c35 -16 88 -137 95
-216 5 -63 -2 -75 -26 -50 -7 6 -40 26 -74 42 -52 25 -70 41 -105 93 -53 79
-63 110 -38 129 23 16 115 17 148 2z m-2053 -49 c0 -26 -4 -30 -28 -30 -32 0
-52 16 -52 42 0 14 8 18 40 18 38 0 40 -2 40 -30z m5916 -7 c18 -59 19 -59 40
-35 22 26 51 28 82 6 17 -12 35 -14 67 -10 40 6 45 5 61 -18 9 -15 21 -26 28
-26 9 0 71 -82 84 -112 7 -16 -60 -38 -116 -38 -43 0 -71 6 -104 24 -31 16
-49 21 -56 14 -17 -17 -57 -5 -60 20 -3 17 -10 22 -33 22 -16 0 -43 10 -59 22
-26 18 -30 29 -30 67 0 27 6 51 17 63 21 24 72 24 79 1z m-4134 -48 c11 -14
28 -25 38 -25 10 0 26 -12 36 -27 48 -75 97 -123 125 -123 35 0 129 -70 194
-143 36 -41 51 -70 71 -137 14 -47 32 -94 38 -105 55 -88 33 -144 -42 -106
-20 11 -50 25 -67 33 -70 31 -271 262 -343 392 -19 34 -39 68 -46 76 -22 27
-95 178 -89 184 16 16 66 5 85 -19z m4593 -30 c36 -27 52 -69 34 -91 -7 -9
-31 -14 -60 -14 l-49 0 0 58 c0 82 17 92 75 47z m-5037 -1 c60 -17 184 -74
215 -98 10 -8 17 -23 15 -33 -3 -16 -14 -18 -100 -17 -83 1 -101 5 -130 24
-58 40 -98 83 -98 105 0 40 14 43 98 19z m1176 -58 c8 -19 23 -39 34 -45 23
-12 45 -114 31 -141 -4 -8 -17 -36 -28 -62 -11 -27 -24 -48 -28 -48 -10 0 -43
172 -43 223 0 21 -5 47 -11 58 -6 12 -8 27 -5 35 10 25 35 15 50 -20z m1760
-12 c13 -34 4 -52 -36 -79 -55 -37 -168 -54 -233 -37 -25 7 -68 12 -95 12 -43
0 -52 -4 -71 -30 -26 -35 -146 -100 -184 -100 -19 0 -62 -25 -135 -80 -59 -44
-112 -80 -117 -80 -19 0 -35 29 -28 50 4 11 71 86 149 165 141 143 173 165
193 131 4 -7 29 -16 55 -20 47 -7 47 -7 62 28 17 41 32 44 107 20 36 -12 64
-14 102 -9 29 4 76 8 104 9 35 1 59 8 70 19 22 21 49 22 57 1z m399 -61 c-2
-50 -1 -53 22 -53 32 0 32 -17 1 -31 -17 -8 -39 -7 -87 6 -35 10 -83 22 -106
28 -65 16 -54 67 13 67 17 0 51 9 75 20 24 11 53 19 64 17 17 -2 20 -9 18 -54z
m142 17 c22 -24 14 -47 -21 -56 -32 -8 -42 5 -36 46 5 35 30 40 57 10z m1003
-260 c17 -11 32 -28 32 -38 0 -18 -37 -42 -65 -42 -29 0 -46 65 -23 88 16 16
17 15 56 -8z m-3001 -150 c13 -36 23 -78 23 -93 0 -15 7 -41 15 -57 14 -27 14
-33 -4 -67 -10 -21 -22 -52 -25 -69 -4 -18 -16 -40 -28 -50 -20 -19 -21 -18
-53 20 -18 22 -36 52 -39 67 -3 14 -16 40 -30 57 -31 36 -33 61 -6 95 11 14
20 30 20 36 0 6 14 32 30 58 17 26 30 53 30 61 0 8 9 12 23 10 17 -2 27 -17
44 -68z"/>
</g>
</svg>
